Normalized EMG Linear Envelopes
nRows=38
nColumns=17

endheader
time	        VM	        VL	        RF	       GRA	        TA	   ADDLONG	   SEMIMEM	      BFLH	        GM	        GL	       TFL	   GLUTMAX	   GLUTMED	      PIRI	    OBTINT	        QF	
1.89	  0.225752	  0.253942	  0.032701	  0.289511	  0.112001	  0.123337	  0.269013	  0.310996	  0.230293	  0.053369	  0.025370	  0.209727	  0.150212	  0.533448	  0.721358	  0.635517	
1.8905	  0.231182	  0.259199	  0.033333	  0.292972	  0.113905	  0.124610	  0.272141	  0.315410	  0.235450	  0.055143	  0.025873	  0.214693	  0.152015	  0.539313	  0.732240	  0.646036	
1.891	  0.236668	  0.264492	  0.033968	  0.296393	  0.115809	  0.125859	  0.275226	  0.319798	  0.240650	  0.056947	  0.026380	  0.219708	  0.153801	  0.545095	  0.743091	  0.656559	
1.8915	  0.242208	  0.269818	  0.034606	  0.299769	  0.117713	  0.127083	  0.278265	  0.324156	  0.245891	  0.058779	  0.026889	  0.224771	  0.155568	  0.550791	  0.753905	  0.667080	
1.892	  0.247801	  0.275175	  0.035248	  0.303098	  0.119616	  0.128281	  0.281256	  0.328483	  0.251173	  0.060641	  0.027401	  0.229881	  0.157317	  0.556397	  0.764677	  0.677596	
1.8925	  0.253446	  0.280563	  0.035893	  0.306377	  0.121517	  0.129452	  0.284196	  0.332773	  0.256493	  0.062533	  0.027915	  0.235037	  0.159045	  0.561908	  0.775401	  0.688100	
1.893	  0.259142	  0.285979	  0.036541	  0.309603	  0.123415	  0.130596	  0.287082	  0.337025	  0.261851	  0.064453	  0.028432	  0.240238	  0.160752	  0.567321	  0.786071	  0.698588	
1.8935	  0.264887	  0.291422	  0.037192	  0.312774	  0.125308	  0.131709	  0.289912	  0.341235	  0.267245	  0.066403	  0.028952	  0.245482	  0.162438	  0.572634	  0.796681	  0.709055	
1.894	  0.270680	  0.296889	  0.037845	  0.315886	  0.127196	  0.132793	  0.292682	  0.345398	  0.272672	  0.068383	  0.029474	  0.250768	  0.164102	  0.577843	  0.807226	  0.719498	
1.8945	  0.276520	  0.302378	  0.038501	  0.318936	  0.129078	  0.133846	  0.295390	  0.349512	  0.278131	  0.070391	  0.029997	  0.256094	  0.165744	  0.582947	  0.817699	  0.729910	
1.895	  0.282405	  0.307888	  0.039159	  0.321922	  0.130952	  0.134866	  0.298033	  0.353574	  0.283622	  0.072429	  0.030523	  0.261460	  0.167362	  0.587943	  0.828095	  0.740288	
1.8955	  0.288334	  0.313415	  0.039820	  0.324841	  0.132817	  0.135854	  0.300609	  0.357579	  0.289140	  0.074496	  0.031051	  0.266863	  0.168958	  0.592829	  0.838409	  0.750628	
1.896	  0.294305	  0.318959	  0.040483	  0.327692	  0.134672	  0.136808	  0.303114	  0.361524	  0.294686	  0.076592	  0.031581	  0.272302	  0.170531	  0.597605	  0.848636	  0.760923	
1.8965	  0.300318	  0.324517	  0.041148	  0.330473	  0.136516	  0.137728	  0.305545	  0.365405	  0.300257	  0.078717	  0.032112	  0.277776	  0.172081	  0.602269	  0.858768	  0.771171	
1.897	  0.306370	  0.330086	  0.041816	  0.333181	  0.138348	  0.138613	  0.307902	  0.369220	  0.305851	  0.080871	  0.032645	  0.283284	  0.173608	  0.606819	  0.868801	  0.781366	
1.8975	  0.312460	  0.335666	  0.042486	  0.335816	  0.140166	  0.139464	  0.310181	  0.372965	  0.311467	  0.083053	  0.033180	  0.288825	  0.175113	  0.611255	  0.878728	  0.791505	
1.898	  0.318586	  0.341253	  0.043158	  0.338376	  0.141970	  0.140280	  0.312382	  0.376635	  0.317102	  0.085265	  0.033716	  0.294396	  0.176595	  0.615577	  0.888542	  0.801584	
1.8985	  0.324747	  0.346846	  0.043832	  0.340860	  0.143757	  0.141062	  0.314502	  0.380229	  0.322754	  0.087506	  0.034254	  0.299999	  0.178055	  0.619783	  0.898238	  0.811600	
1.899	  0.330942	  0.352442	  0.044508	  0.343266	  0.145527	  0.141809	  0.316541	  0.383743	  0.328422	  0.089775	  0.034794	  0.305630	  0.179493	  0.623876	  0.907807	  0.821549	
1.8995	  0.337169	  0.358041	  0.045186	  0.345595	  0.147279	  0.142521	  0.318498	  0.387175	  0.334104	  0.092073	  0.035335	  0.311289	  0.180911	  0.627855	  0.917244	  0.831428	
1.9	  0.343426	  0.363640	  0.045867	  0.347846	  0.149010	  0.143199	  0.320372	  0.390524	  0.339797	  0.094399	  0.035878	  0.316974	  0.182308	  0.631722	  0.926541	  0.841233	
1.9005	  0.349711	  0.369238	  0.046550	  0.350019	  0.150721	  0.143842	  0.322162	  0.393786	  0.345500	  0.096755	  0.036423	  0.322685	  0.183685	  0.635480	  0.935690	  0.850960	
1.901	  0.356024	  0.374832	  0.047234	  0.352114	  0.152409	  0.144450	  0.323867	  0.396962	  0.351210	  0.099139	  0.036969	  0.328419	  0.185043	  0.639130	  0.944685	  0.860606	
1.9015	  0.362361	  0.380421	  0.047921	  0.354130	  0.154073	  0.145024	  0.325486	  0.400050	  0.356926	  0.101551	  0.037517	  0.334176	  0.186383	  0.642676	  0.953517	  0.870166	
1.902	  0.368723	  0.386003	  0.048610	  0.356069	  0.155713	  0.145564	  0.327021	  0.403048	  0.362647	  0.103992	  0.038066	  0.339953	  0.187706	  0.646120	  0.962180	  0.879637	
1.9025	  0.375106	  0.391575	  0.049301	  0.357931	  0.157326	  0.146068	  0.328469	  0.405955	  0.368369	  0.106462	  0.038618	  0.345750	  0.189011	  0.649464	  0.970668	  0.889014	
1.903	  0.381508	  0.397137	  0.049994	  0.359715	  0.158911	  0.146538	  0.329832	  0.408770	  0.374092	  0.108960	  0.039171	  0.351565	  0.190300	  0.652710	  0.978973	  0.898294	
1.9035	  0.387929	  0.402686	  0.050689	  0.361423	  0.160467	  0.146974	  0.331109	  0.411492	  0.379814	  0.111486	  0.039726	  0.357396	  0.191573	  0.655862	  0.987089	  0.907472	
1.904	  0.394366	  0.408220	  0.051386	  0.363055	  0.161993	  0.147375	  0.332300	  0.414119	  0.385533	  0.114041	  0.040282	  0.363241	  0.192832	  0.658921	  0.995010	  0.916544	
1.9045	  0.400817	  0.413738	  0.052085	  0.364611	  0.163488	  0.147742	  0.333404	  0.416652	  0.391248	  0.116624	  0.040841	  0.369101	  0.194075	  0.661890	  1.002728	  0.925506	
1.905	  0.407279	  0.419238	  0.052785	  0.366092	  0.164950	  0.148076	  0.334422	  0.419091	  0.396956	  0.119235	  0.041401	  0.374972	  0.195305	  0.664771	  1.010239	  0.934354	
1.9055	  0.413752	  0.424719	  0.053487	  0.367500	  0.166379	  0.148376	  0.335354	  0.421437	  0.402657	  0.121874	  0.041963	  0.380854	  0.196521	  0.667565	  1.017535	  0.943086	
1.906	  0.420231	  0.430178	  0.054190	  0.368834	  0.167773	  0.148643	  0.336200	  0.423688	  0.408347	  0.124540	  0.042526	  0.386746	  0.197725	  0.670275	  1.024613	  0.951697	
1.9065	  0.426716	  0.435616	  0.054895	  0.370096	  0.169131	  0.148878	  0.336959	  0.425846	  0.414026	  0.127235	  0.043092	  0.392646	  0.198915	  0.672903	  1.031469	  0.960185	
1.907	  0.433204	  0.441031	  0.055600	  0.371286	  0.170452	  0.149080	  0.337633	  0.427911	  0.419691	  0.129956	  0.043659	  0.398553	  0.200093	  0.675450	  1.038100	  0.968549	
1.9075	  0.439692	  0.446421	  0.056307	  0.372405	  0.171735	  0.149251	  0.338219	  0.429883	  0.425340	  0.132705	  0.044227	  0.404466	  0.201260	  0.677919	  1.044505	  0.976786	
1.908	  0.446177	  0.451786	  0.057015	  0.373453	  0.172980	  0.149389	  0.338719	  0.431762	  0.430972	  0.135481	  0.044798	  0.410382	  0.202414	  0.680310	  1.050683	  0.984896	
1.9085	  0.452658	  0.457125	  0.057723	  0.374432	  0.174185	  0.149496	  0.339132	  0.433548	  0.436585	  0.138284	  0.045369	  0.416300	  0.203558	  0.682625	  1.056633	  0.992875	
